# xmcd CD database file
#
# Track frame offsets:
#	150
#	9835
#	22346
#	33718
#	45624
#	57220
#	68313
#	80873
#	90950
#	100974
#	112153
#	129178
#
# Disc length: 1851 seconds
#
# Revision: 1
# Processed by: cddbd v1.5.2PL0 Copyright (c) Steve Scherf et al.
# Submitted via: CDex 1.70beta2
#
DISCID=9407390c
DTITLE=Milionário e José Rico - VOL 5 - ESTRADA DA VIDA
DYEAR=1977
DGENRE=Country
TTITLE0=ESTRADA DA VIDA
TTITLE1=BEBIDA NÃO CURA PAIXÃO
TTITLE2=MEU SOFRIMENTO
TTITLE3=DESTINO CRUEL
TTITLE4=SENTIMENTO SERTANEJO
TTITLE5=ADEUS
TTITLE6=MIGALHAS DE AMOR
TTITLE7=DOCE ILUSÃO
TTITLE8=CONSELHO
TTITLE9=CIUMENTO
TTITLE10=SOLIDÃO
TTITLE11=ESQUECIDO
EXTD=YEAR: 1977
EXTT0=
EXTT1=
EXTT2=
EXTT3=
EXTT4=
EXTT5=
EXTT6=
EXTT7=
EXTT8=
EXTT9=
EXTT10=
EXTT11=
PLAYORDER=
